<svg xmlns="http://www.w3.org/2000/svg" width="2400" height="600" viewBox="0 0 2400 600" version="1.1"><path d="M 311.294 33.053 C 304.835 35.601, 301 39.903, 301 44.599 C 301 48.266, 301.216 48.544, 320 68.975 C 320.825 69.873, 325.550 75.083, 330.500 80.553 C 335.450 86.024, 339.855 90.656, 340.289 90.846 C 340.722 91.037, 339.172 93.287, 336.842 95.846 C 330.965 102.304, 315.589 119.113, 309.096 126.178 C 301.632 134.298, 298.061 139.178, 298.028 141.300 C 297.974 144.790, 301.064 148.954, 305.756 151.711 C 310.025 154.221, 311.402 154.495, 319.500 154.448 C 330.680 154.384, 333.100 153.029, 344.500 140.451 C 348.900 135.596, 354.750 129.183, 357.500 126.199 C 360.250 123.216, 362.650 120.376, 362.833 119.888 C 363.693 117.598, 366.587 120.080, 379.727 134.377 C 395.969 152.049, 398.903 154, 409.233 154 C 426.003 154, 435.198 143.127, 426.752 133.285 C 424.965 131.203, 423.251 129.275, 422.941 129 C 422.632 128.725, 419.745 125.575, 416.525 122 C 413.304 118.425, 406.681 111.166, 401.806 105.870 C 387.685 90.527, 388.695 92.007, 390.742 89.656 C 391.709 88.546, 393.175 86.914, 394 86.029 C 394.825 85.144, 399.550 79.966, 404.500 74.521 C 409.450 69.077, 416.081 61.895, 419.235 58.561 C 429.071 48.168, 430.085 42.574, 423.121 37.137 C 417.086 32.426, 408.634 31.027, 398.859 33.124 C 393.169 34.344, 390.210 36.923, 375.500 53.481 C 371.650 57.814, 367.604 62.201, 366.509 63.229 C 364.267 65.333, 365.653 66.594, 346.780 45.269 C 337.193 34.435, 332.686 31.791, 323 31.317 C 318.215 31.083, 315.126 31.541, 311.294 33.053 M 434.691 77.909 C 429.854 78.919, 422.895 83.768, 421.182 87.322 C 419.460 90.894, 420.871 95.273, 425.266 100 C 427.056 101.925, 435.484 111.150, 443.995 120.500 C 452.505 129.850, 459.705 137.725, 459.993 138 C 460.281 138.275, 465.448 143.900, 471.475 150.500 C 477.502 157.100, 482.898 162.995, 483.467 163.601 C 484.035 164.207, 488.100 168.687, 492.500 173.558 C 496.900 178.429, 505.450 187.846, 511.500 194.485 C 517.550 201.124, 526.550 211.020, 531.500 216.475 C 536.450 221.931, 543.017 229.118, 546.093 232.447 C 549.169 235.776, 553.444 240.525, 555.593 243 C 557.742 245.475, 560.199 248.175, 561.053 249 C 561.907 249.825, 566.847 255.225, 572.031 261 C 577.214 266.775, 581.728 271.725, 582.061 272 C 582.394 272.275, 589.812 280.375, 598.545 290 C 607.278 299.625, 616.015 309.255, 617.962 311.399 C 619.908 313.543, 622.218 316.018, 623.097 316.899 C 624.486 318.292, 633.474 328.177, 649.046 345.436 C 651.496 348.151, 656.021 353.101, 659.102 356.436 C 662.183 359.771, 666.683 364.681, 669.102 367.346 C 678.551 377.757, 680.069 379.129, 684.214 381.011 C 690.155 383.707, 701.171 383.697, 707.294 380.988 C 715.313 377.441, 718.780 371.238, 715.846 365.684 C 714.899 363.892, 706.042 353.805, 695.500 342.512 C 691.388 338.107, 675.168 320.285, 670.005 314.500 C 667.061 311.200, 663.717 307.589, 662.576 306.475 C 661.434 305.361, 657.125 300.656, 653 296.018 C 648.875 291.380, 644.825 286.867, 644 285.989 C 635.290 276.721, 624.432 264.634, 624.167 263.909 C 623.968 263.366, 687.060 263, 780.917 263 L 938 263 938 350.478 L 938 437.956 853.250 438.228 L 768.500 438.500 763.978 440.729 C 755.770 444.774, 753.361 453.340, 758.948 458.613 C 765.940 465.212, 760.329 464.887, 867.500 464.903 C 956.558 464.916, 964.873 464.777, 969.056 463.208 C 974.571 461.140, 977.302 459.217, 978.841 456.316 C 980.506 453.177, 980.502 248.195, 978.837 244.541 C 978.129 242.988, 975.483 240.912, 972.087 239.244 L 966.500 236.500 782.500 236.256 L 598.500 236.012 594.500 231.632 C 592.300 229.223, 586.450 222.855, 581.500 217.480 C 576.550 212.105, 571.692 206.781, 570.705 205.648 C 569.717 204.516, 566.567 201.057, 563.705 197.962 C 555.089 188.647, 541.536 173.783, 537.393 169.104 C 535.252 166.686, 531.986 163.086, 530.136 161.104 C 528.286 159.122, 523.336 153.687, 519.136 149.026 C 514.936 144.365, 508.382 137.165, 504.572 133.026 C 490.546 117.791, 488.270 115.292, 479.033 105 C 463.418 87.600, 457.685 81.903, 453.762 79.890 C 449.488 77.696, 440.288 76.741, 434.691 77.909 M 512.500 77.876 C 505.043 79.427, 499 85.038, 499 90.412 C 499 94.080, 500.483 96.481, 507.418 104.039 C 510.213 107.085, 516.550 114.013, 521.500 119.435 C 526.450 124.856, 530.971 129.789, 531.547 130.396 C 532.123 131.003, 538.638 138.250, 546.024 146.500 C 553.410 154.750, 559.719 161.725, 560.043 162 C 560.368 162.275, 565.757 168.125, 572.021 175 C 578.284 181.875, 585.081 189.300, 587.126 191.500 C 589.171 193.700, 591.814 196.625, 593 198 C 602.341 208.830, 616.037 222.488, 619.147 224.075 C 622.829 225.953, 627.110 225.999, 795.210 225.978 C 960.764 225.957, 967.659 225.884, 971.579 224.104 C 982.244 219.260, 982.842 208.163, 972.729 202.760 L 968.500 200.500 805.891 200.235 L 643.282 199.971 635.891 191.830 C 631.826 187.353, 627.678 182.747, 626.674 181.595 C 625.669 180.443, 622.519 177.025, 619.674 173.999 C 616.828 170.974, 610.450 164.017, 605.500 158.539 C 600.550 153.061, 595.825 147.859, 595 146.978 C 591.487 143.225, 575.346 125.539, 573.672 123.608 C 571.534 121.142, 564.162 113.107, 559.122 107.750 L 555.594 104 746.797 104 L 938 104 938 116 L 938 128 786.816 128 L 635.631 128 631.289 130.102 C 626.514 132.414, 622 137.562, 622 140.697 C 622 144.006, 626.214 149.200, 630.907 151.676 L 635.315 154 801.197 154 C 962.285 154, 967.187 153.945, 970.790 152.097 C 972.830 151.051, 975.625 148.990, 977 147.518 L 979.500 144.842 979.795 116.738 C 979.989 98.333, 979.721 87.740, 979.018 86.043 C 978.427 84.618, 975.820 82.113, 973.222 80.476 L 968.500 77.500 742 77.376 C 617.425 77.308, 514.150 77.533, 512.500 77.876 M 1016.500 77.918 C 1012.375 78.928, 1009 80.778, 1005.750 83.809 C 1001.953 87.351, 1001.906 93.340, 1005.643 97.371 C 1011.563 103.755, 1007.299 103.451, 1098.500 104 L 1181.500 104.500 1177.500 107.069 C 1170.664 111.460, 1161.075 117.441, 1158.735 118.772 C 1156.334 120.139, 1137.186 132.438, 1135.458 133.724 C 1134.884 134.151, 1133.278 135.175, 1131.889 136 C 1130.499 136.825, 1122.970 141.550, 1115.158 146.500 C 1107.345 151.450, 1099.870 156.175, 1098.547 157 C 1093.969 159.855, 1082.476 167.146, 1076.770 170.815 C 1073.618 172.842, 1065.968 177.608, 1059.770 181.406 C 1053.571 185.204, 1047.748 188.954, 1046.829 189.739 C 1045.278 191.065, 1045.134 189.807, 1044.829 172.186 C 1044.456 150.651, 1044.515 150.820, 1035.783 146.392 C 1029.011 142.958, 1017.911 142.998, 1011.036 146.482 C 1002.171 150.974, 1003 134.643, 1003 304.768 L 1003 456.091 1005.506 458.597 C 1012.480 465.571, 1026.479 467.226, 1036.136 462.218 C 1045.803 457.205, 1044.997 468.347, 1044.998 339.750 L 1045 227 1128.500 227 L 1212 227 1212 310.066 C 1212 370.107, 1212.315 393.737, 1213.136 395.316 C 1215.044 398.987, 1217.882 401.110, 1223.538 403.098 C 1230.166 405.427, 1235.434 405.508, 1241.715 403.376 C 1247.100 401.548, 1250.917 398.873, 1252.715 395.666 C 1253.642 394.012, 1253.936 371.873, 1253.960 302 L 1253.990 210.500 1251.745 207.822 C 1250.510 206.349, 1247.707 204.212, 1245.515 203.072 C 1241.587 201.030, 1240.454 201, 1166.265 201 C 1124.869 201, 1091 200.662, 1091 200.249 C 1091 199.836, 1097.755 195.224, 1106.012 189.999 C 1114.268 184.775, 1122.086 179.825, 1123.384 179 C 1124.682 178.175, 1131.314 173.985, 1138.122 169.689 C 1144.930 165.394, 1157.250 157.575, 1165.500 152.314 C 1173.750 147.054, 1181.693 142.018, 1183.152 141.125 C 1184.611 140.231, 1191.474 135.900, 1198.404 131.500 C 1205.333 127.100, 1214.965 121.025, 1219.807 118 C 1239.996 105.389, 1250.912 97.964, 1252.409 95.827 C 1254.429 92.942, 1254.450 88.088, 1252.454 85.238 C 1251.604 84.024, 1248.791 81.786, 1246.204 80.265 L 1241.500 77.500 1130.500 77.342 C 1069.450 77.255, 1018.150 77.514, 1016.500 77.918 M 1302.500 77.920 C 1297.856 79.074, 1293.382 81.699, 1291.088 84.615 L 1289 87.270 1289 262.607 L 1289 437.945 1222.750 438.223 L 1156.500 438.500 1151.907 440.849 C 1143.594 445.100, 1141.393 453.214, 1147.051 458.746 C 1153.439 464.991, 1153.545 465, 1224.615 465 L 1289 465 1289 512.277 C 1289 565.113, 1288.547 561.745, 1296.336 566.769 C 1300.100 569.197, 1301.412 569.457, 1310 569.478 C 1318.013 569.496, 1320.171 569.142, 1323.789 567.210 C 1326.148 565.950, 1328.959 563.475, 1330.035 561.710 C 1331.963 558.548, 1331.993 555.074, 1331.996 331.292 L 1332 104.084 1394.750 103.792 C 1455.997 103.507, 1457.587 103.451, 1461.132 101.439 C 1466.630 98.320, 1468.214 96.288, 1468.727 91.692 C 1469.295 86.603, 1466.910 83.067, 1460.655 79.722 L 1456.500 77.500 1381 77.337 C 1339.475 77.248, 1304.150 77.510, 1302.500 77.920 M 1509.917 77.920 C 1505.594 78.778, 1499.555 82.369, 1497.499 85.305 C 1493.836 90.535, 1497.065 97.817, 1504.738 101.631 C 1508.296 103.399, 1513.012 103.527, 1591.639 104 L 1674.779 104.500 1655.830 116.500 C 1645.409 123.100, 1628.246 133.981, 1617.691 140.679 C 1594.857 155.171, 1580.622 164.095, 1577.956 165.589 C 1576.888 166.188, 1575.223 167.352, 1574.257 168.177 C 1573.291 169.001, 1568.675 172.026, 1564 174.899 C 1553.234 181.514, 1553.007 181.656, 1545.098 186.748 L 1538.500 190.995 1538 172.075 C 1537.519 153.868, 1537.410 153.060, 1535.123 150.628 C 1528.386 143.465, 1513.956 141.671, 1503.929 146.750 C 1500.928 148.270, 1497.948 150.618, 1497.265 152 C 1496.343 153.866, 1496.026 165.463, 1496.015 197.734 L 1496 240.968 1498.750 243.997 C 1501.936 247.505, 1511.044 251, 1517 251 C 1519.227 251, 1523.485 250.144, 1526.462 249.098 C 1535.427 245.947, 1538 242.372, 1538 233.066 L 1538 227 1621.500 227 L 1705 227 1705 340.965 L 1705 454.930 1708.006 458.354 C 1712.592 463.578, 1716.523 465, 1726.370 465 C 1736.034 465, 1741.472 462.955, 1745.006 457.992 C 1746.972 455.231, 1747 453.465, 1747 332.730 L 1747 210.270 1744.918 207.622 C 1743.772 206.166, 1740.872 204.081, 1738.472 202.987 C 1734.243 201.061, 1731.821 201, 1659.055 201 C 1617.775 201, 1584.013 200.662, 1584.029 200.250 C 1584.045 199.838, 1587.665 197.250, 1592.073 194.500 C 1596.481 191.750, 1601.168 188.825, 1602.489 188 C 1603.809 187.175, 1609.302 183.747, 1614.695 180.382 C 1624.558 174.227, 1644.361 161.658, 1657.667 153.106 C 1661.609 150.573, 1669.259 145.703, 1674.667 142.285 C 1727.408 108.950, 1741.889 99.516, 1744.250 96.954 C 1749.460 91.299, 1747.181 84.281, 1738.655 79.722 L 1734.500 77.500 1624 77.354 C 1563.225 77.274, 1511.887 77.529, 1509.917 77.920 M 1783.500 77.925 C 1775.272 79.955, 1770 85.027, 1770 90.912 C 1770 95.561, 1772.062 98.466, 1777.316 101.219 C 1780.706 102.994, 1783.636 103.487, 1792.750 103.813 L 1804 104.216 1804 187.968 L 1804 271.721 1792.499 272.229 C 1782.219 272.682, 1780.575 273.015, 1777.023 275.366 C 1771.427 279.070, 1769.626 282.172, 1770.272 286.994 C 1770.860 291.374, 1772.471 293.377, 1777.868 296.439 C 1781.482 298.490, 1782.121 298.500, 1905.500 298.500 C 2021.954 298.500, 2029.696 298.393, 2032.718 296.741 C 2034.488 295.773, 2037.075 293.753, 2038.468 292.251 L 2041 289.520 2041 187.947 L 2041 86.374 2038.250 83.801 C 2036.737 82.386, 2033.925 80.389, 2032 79.364 C 2028.645 77.577, 2023.475 77.493, 1907.500 77.343 C 1840.950 77.256, 1785.150 77.518, 1783.500 77.925 M 2076.358 77.943 C 2069.264 79.659, 2063 85.782, 2063 91 C 2063 94.275, 2066.641 98.763, 2071.334 101.273 L 2075.500 103.500 2158.941 104 L 2242.382 104.500 2235.966 108.500 C 2232.437 110.700, 2224.364 115.822, 2218.025 119.882 C 2211.686 123.942, 2202.088 130.017, 2196.695 133.382 C 2191.302 136.747, 2185.808 140.175, 2184.486 141 C 2178.943 144.459, 2164.391 153.730, 2159.879 156.677 C 2157.204 158.425, 2149.803 163.150, 2143.433 167.177 C 2137.063 171.205, 2130.784 175.175, 2129.479 176 C 2128.174 176.825, 2123.145 179.935, 2118.303 182.912 C 2113.461 185.889, 2108.713 188.996, 2107.750 189.817 C 2106.093 191.231, 2106 190.340, 2106 172.999 C 2106 155.112, 2105.943 154.615, 2103.552 151.479 C 2099.749 146.494, 2093.396 144, 2084.500 144 C 2075.604 144, 2069.251 146.494, 2065.448 151.479 L 2063 154.689 2063 303.976 C 2063 452.446, 2063.011 453.282, 2065.038 456.561 C 2066.247 458.518, 2069.173 460.904, 2072.234 462.429 C 2082.718 467.654, 2099.137 464.744, 2103.978 456.805 C 2105.966 453.543, 2105.993 452.013, 2105.996 340.250 L 2106 227 2189.500 227 L 2273 227 2273 341.423 L 2273 455.847 2275.528 458.851 C 2279.466 463.531, 2285.291 465.267, 2295.663 464.853 C 2303.590 464.536, 2304.932 464.191, 2308.692 461.500 C 2310.998 459.850, 2313.361 457.466, 2313.942 456.203 C 2314.667 454.628, 2315 415.682, 2315 332.357 C 2315 210.958, 2314.997 210.805, 2312.926 207.895 C 2311.785 206.293, 2308.884 204.086, 2306.480 202.991 C 2302.240 201.059, 2299.868 201, 2227.055 201 C 2185.775 201, 2152.012 200.662, 2152.027 200.250 C 2152.042 199.838, 2153.904 198.375, 2156.165 197 C 2158.426 195.625, 2162.352 193.167, 2164.888 191.537 C 2167.425 189.907, 2174.553 185.407, 2180.729 181.537 C 2203.428 167.313, 2212.713 161.432, 2222 155.398 C 2234.821 147.067, 2283.990 115.920, 2296.925 107.935 C 2310.715 99.422, 2315 95.378, 2315 90.877 C 2315 86.409, 2312.982 83.662, 2307.204 80.265 L 2302.500 77.500 2191 77.342 C 2129.675 77.255, 2078.086 77.525, 2076.358 77.943 M 2348.835 80.522 C 2339.686 85.287, 2340 83.691, 2340 125.365 L 2340 161.921 2284.250 162.210 C 2232.060 162.482, 2228.277 162.619, 2225 164.367 C 2218.372 167.903, 2217 169.829, 2217 175.602 C 2217 180.422, 2217.298 181.100, 2220.621 183.839 C 2222.612 185.480, 2226.186 187.313, 2228.564 187.912 C 2231.411 188.629, 2251.155 189, 2286.443 189 L 2340 189 2340 321.132 C 2340 452.339, 2340.014 453.287, 2342.038 456.561 C 2345.164 461.619, 2352.832 465, 2361.176 465 C 2368.094 465, 2374.913 463.053, 2378.356 460.095 C 2379.377 459.218, 2381.065 456.830, 2382.106 454.790 C 2383.944 451.190, 2384 445.757, 2383.984 271.290 L 2383.967 91.500 2381.707 87.500 C 2380.226 84.877, 2377.735 82.561, 2374.474 80.773 C 2370.213 78.437, 2368.354 78.050, 2361.500 78.070 C 2355.005 78.089, 2352.622 78.550, 2348.835 80.522 M 1846 188 L 1846 272 1922.500 272 L 1999 272 1999 188 L 1999 104 1922.500 104 L 1846 104 1846 188 M 261.540 180.774 C 256.223 182.544, 253.632 184.849, 240.500 199.486 C 236.100 204.390, 231.825 209.118, 231 209.991 C 230.175 210.864, 222.758 218.986, 214.518 228.039 C 206.277 237.093, 197.502 246.698, 195.018 249.385 C 192.533 252.072, 190.050 254.777, 189.500 255.397 C 188.950 256.016, 183.976 261.468, 178.446 267.511 C 172.917 273.555, 166.617 280.485, 164.446 282.911 C 162.276 285.337, 159.375 288.518, 158 289.980 C 156.625 291.442, 151.467 297.107, 146.537 302.569 C 141.608 308.031, 136.883 313.220, 136.037 314.100 C 135.192 314.979, 130.675 319.922, 126 325.083 C 121.325 330.244, 114.779 337.399, 111.454 340.983 C 108.129 344.568, 104.304 348.796, 102.954 350.380 C 101.604 351.964, 99.375 354.445, 98 355.893 C 96.625 357.342, 91.450 363.003, 86.500 368.473 C 81.550 373.944, 76.825 379.133, 76 380.004 C 73.757 382.374, 58.311 399.298, 40.413 419 C 31.669 428.625, 22.834 438.300, 20.780 440.500 C 14.816 446.888, 14.164 449.408, 17.068 454.848 C 18.889 458.260, 20.756 460.043, 24.500 461.952 L 29.500 464.500 363.500 464.500 L 697.500 464.500 703.372 461.500 C 710.152 458.036, 713.748 453.115, 712.661 448.785 C 712.299 447.342, 706.965 440.612, 700.808 433.831 C 689.389 421.253, 683.318 414.594, 681.459 412.611 C 680.887 412, 677.775 408.575, 674.544 405 C 665.536 395.033, 648.273 376.113, 629 355.086 C 623.775 349.385, 618.767 343.878, 617.872 342.848 C 615.756 340.414, 600.949 324.059, 599 322.003 C 598.175 321.133, 590.774 313.014, 582.554 303.961 C 574.334 294.907, 566.909 286.790, 566.054 285.923 C 565.199 285.056, 561.350 280.823, 557.500 276.518 C 553.650 272.212, 549.548 267.747, 548.384 266.595 C 547.220 265.443, 542.045 259.774, 536.884 253.998 C 531.723 248.222, 526.600 242.567, 525.500 241.431 C 524.400 240.296, 519.679 235.121, 515.008 229.933 C 510.337 224.745, 504.005 217.800, 500.936 214.500 C 494.885 207.994, 489.361 201.895, 486.074 198.093 C 476.369 186.867, 472.528 183.654, 466 181.295 C 455.299 177.428, 438.512 183.360, 436.355 191.769 C 435.558 194.877, 437.345 198.748, 441.773 203.503 C 444.850 206.809, 463.983 227.692, 467.500 231.584 C 472.209 236.794, 487.769 253.856, 493 259.543 C 504.207 271.728, 518.458 287.258, 519.500 288.421 C 520.050 289.035, 522.485 291.779, 524.910 294.519 C 527.336 297.258, 531.836 302.205, 534.910 305.512 C 537.985 308.818, 542.750 314.009, 545.500 317.048 C 555.864 328.498, 568.555 342.442, 570 343.966 C 570.825 344.837, 580.275 355.207, 591 367.012 C 601.725 378.817, 611.175 389.188, 612 390.059 C 614.253 392.438, 630.025 409.802, 635.074 415.462 C 639.402 420.314, 648.683 430.414, 652.333 434.243 C 653.342 435.301, 653.978 436.355, 653.748 436.585 C 653.518 436.815, 522.874 436.890, 363.427 436.752 L 73.524 436.500 79.418 430 C 82.659 426.425, 87.154 421.473, 89.406 418.995 C 91.658 416.518, 97.774 409.768, 102.997 403.995 C 108.220 398.223, 114.970 390.837, 117.997 387.583 C 125.017 380.035, 125.611 379.384, 130.911 373.444 C 133.337 370.725, 137.637 366.025, 140.467 363 C 143.296 359.975, 148.250 354.575, 151.475 351 C 160.504 340.992, 189.678 308.964, 227.989 267 C 232.759 261.775, 238.426 255.515, 240.581 253.089 C 242.737 250.663, 245.625 247.512, 247 246.086 C 248.375 244.661, 253.100 239.479, 257.500 234.571 C 261.900 229.663, 266.625 224.453, 268 222.994 C 271.043 219.765, 285.335 204.021, 289.183 199.658 C 295.238 192.793, 291.030 184.266, 279.848 180.741 C 273.074 178.606, 268.027 178.615, 261.540 180.774 M 1371.500 261.671 C 1364.305 263.315, 1359.784 265.482, 1357.047 268.600 L 1354 272.070 1354 363.458 L 1354 454.847 1356.547 457.873 C 1357.948 459.538, 1360.535 461.710, 1362.297 462.700 C 1365.321 464.399, 1371.857 464.516, 1479 464.778 C 1604.475 465.085, 1597.414 465.426, 1603.940 458.750 L 1607 455.620 1607 363.550 L 1607 271.480 1604.343 268.614 C 1602.882 267.038, 1599.619 264.793, 1597.093 263.624 C 1592.505 261.502, 1592.380 261.500, 1483 261.357 C 1422.775 261.279, 1372.600 261.420, 1371.500 261.671 M 1396 363.494 L 1396 439 1481.006 439 L 1566.013 439 1565.756 363.750 L 1565.500 288.500 1480.750 288.244 L 1396 287.989 1396 363.494 M 1770 329.482 L 1770 343 1884.500 343 L 1999 343 1999 354.500 L 1999 366 1897.250 366.006 C 1838.598 366.009, 1793.072 366.409, 1789.768 366.950 C 1778.973 368.719, 1773.545 373.146, 1773.545 380.183 C 1773.545 384.662, 1776.369 388.013, 1782.616 390.950 C 1786.939 392.981, 1788.073 393, 1907.604 393 L 2028.229 393 2032.935 390.439 C 2041.016 386.041, 2041 386.111, 2041 354.172 L 2041 326.153 2038.381 323.041 C 2032.433 315.972, 2043.774 316.530, 1899.750 316.232 L 1770 315.964 1770 329.482 M 1775 451.985 L 1775 465 1901.555 465 C 2025.713 465, 2028.192 464.962, 2032.472 463.013 C 2043.770 457.866, 2044.029 447.237, 2033 441.364 C 2029.646 439.578, 2024.198 439.489, 1902.250 439.235 L 1775 438.970 1775 451.985" stroke="none" fill="#e004e4" fill-rule="evenodd"/></svg>